<svg xmlns="http://www.w3.org/2000/svg" xmlns:xlink="http://www.w3.org/1999/xlink" viewBox="0 0 384.95 88.08"><defs><style>.a{fill:none;}.b{clip-path:url(#a);}.c{fill:#44205f;}.d{fill:#94c01f;}</style><clipPath id="a" transform="translate(-228.47 -252.36)"><rect class="a" width="841.89" height="595.28"/></clipPath></defs><title>logo-technolab</title><g class="b"><path class="c" d="M364.33,337.75c0-.59-.69-.68-1.53-.73-1.83-.13-3-.76-3.05-2.58-.07-3.62,6.45-3.62,6.4,0h-2c0-1.11-2.26-1-2.33,0-.05.63.57.77,1.33.85,1.67.18,3.3.39,3.3,2.49,0,3.53-6.84,3.63-6.79-.07h2.07c0,1.07,2.63,1,2.63.06" transform="translate(-228.47 -252.36)"/><path class="c" d="M372.8,339.2h-3.31l-.49,1.06h-2.1V340l3.78-8.2h.92l3.79,8.2v.31h-2.1Zm-1.66-4.05-.94,2.21h1.9Z" transform="translate(-228.47 -252.36)"/><polygon class="c" points="155.45 79.48 156.22 79.48 156.22 87.9 154.03 87.9 154.03 84.16 152.24 86.03 152 86.03 150.22 84.16 150.22 87.9 148.03 87.9 148.03 79.48 148.82 79.48 152.11 83.13 155.45 79.48"/><polygon class="c" points="163.56 81.42 160.45 81.42 160.45 82.61 163.3 82.61 163.3 84.52 160.45 84.52 160.45 85.99 163.66 85.99 163.66 87.9 158.31 87.9 158.31 79.5 163.56 79.5 163.56 81.42"/><polygon class="c" points="167.75 83.77 167.75 87.9 165.53 87.9 165.53 79.47 166.31 79.47 170.55 83.62 170.55 79.5 172.75 79.5 172.75 87.91 171.98 87.91 167.75 83.77"/><polygon class="d" points="180.34 85.97 183.38 85.97 183.38 87.9 178.18 87.9 178.18 79.5 180.34 79.5 180.34 85.97"/><path class="d" d="M418.37,333.78h-3.11V335h2.86v1.91h-2.86v1.47h3.22v1.91h-5.35v-8.4h5.24Zm-3.59-2.47v-.19l.92-2,1.82.61v.18l-1.24,1.4Z" transform="translate(-228.47 -252.36)"/><path class="d" d="M427.44,340v.31H425l-1.44-2.47h-1.11v2.47h-2.15v-8.4H424a3,3,0,0,1,1.77,5.42ZM424,333.78h-1.53v2.08H424c1.16,0,1.22-2.07,0-2.08" transform="translate(-228.47 -252.36)"/><polygon class="d" points="205.55 81.42 202.44 81.42 202.44 82.61 205.3 82.61 205.3 84.52 202.44 84.52 202.44 85.99 205.66 85.99 205.66 87.9 200.31 87.9 200.31 79.5 205.55 79.5 205.55 81.42"/><polygon class="d" points="209.74 83.77 209.74 87.9 207.52 87.9 207.52 79.47 208.3 79.47 212.55 83.62 212.55 79.5 214.74 79.5 214.74 87.91 213.97 87.91 209.74 83.77"/><path class="c" d="M451.82,340.26h-3.17v-8.4h3.17c5.46,0,5.46,8.37,0,8.4m-1-2h1c2.67,0,2.67-4.48,0-4.48h-1Z" transform="translate(-228.47 -252.36)"/><path class="c" d="M457,336.07c0-5.8,8.61-5.8,8.61,0s-8.61,5.82-8.61,0m6.42,0a2.11,2.11,0,1,0-4.21,0,2.11,2.11,0,1,0,4.21,0" transform="translate(-228.47 -252.36)"/><polygon class="c" points="244 81.42 240.9 81.42 240.9 82.61 243.75 82.61 243.75 84.52 240.9 84.52 240.9 85.99 244.11 85.99 244.11 87.9 238.76 87.9 238.76 79.5 244 79.5 244 81.42"/><polygon class="c" points="248.2 83.77 248.2 87.9 245.98 87.9 245.98 79.47 246.76 79.47 251 83.62 251 79.5 253.2 79.5 253.2 87.91 252.43 87.91 248.2 83.77"/></g><rect class="d" y="17.04" width="33.45" height="10.29"/><rect class="c" x="11.05" y="17.17" width="11.34" height="44.91"/><rect class="d" x="11.06" y="20.65" width="4.2" height="1.21"/><rect class="d" x="11.06" y="25.23" width="4.2" height="1.21"/><rect class="d" x="11.06" y="29.8" width="4.2" height="1.21"/><rect class="d" x="11.06" y="34.38" width="4.2" height="1.21"/><rect class="d" x="11.06" y="38.96" width="4.2" height="1.21"/><rect class="d" x="11.06" y="43.53" width="4.2" height="1.21"/><rect class="d" x="11.06" y="48.11" width="4.2" height="1.21"/><rect class="d" x="11.06" y="52.69" width="4.2" height="1.21"/><rect class="d" x="11.06" y="57.27" width="4.2" height="1.21"/><path class="c" d="M356.15,314.44h5.39v1.71a.86.86,0,0,1-.86.87H357a.87.87,0,0,1-.87-.88Z" transform="translate(-228.47 -252.36)"/><path class="c" d="M387.22,269.4h-5.4v-1.7a.87.87,0,0,1,.87-.87h3.65a.87.87,0,0,1,.88.87Z" transform="translate(-228.47 -252.36)"/><polygon class="d" points="161.94 62.09 150.16 62.09 150.16 44 136.27 44 136.27 62.09 124.49 62.09 124.49 17.04 136.27 17.04 136.27 33.39 150.16 33.39 150.16 17.04 161.94 17.04 161.94 62.09"/><rect class="c" x="150.17" y="27.47" width="11.77" height="34.62"/><path class="c" d="M386.86,274.14h-1.94v-1.86a.4.4,0,0,0-.4-.4.39.39,0,0,0-.39.4v1.86h-1.95a.39.39,0,0,0-.39.39.4.4,0,0,0,.39.4h1.95v2a.39.39,0,0,0,.39.4.4.4,0,0,0,.4-.4v-2h1.94a.4.4,0,0,0,.39-.4.39.39,0,0,0-.39-.39" transform="translate(-228.47 -252.36)"/><rect class="c" x="124.49" y="17.04" width="11.77" height="34.62"/><path class="c" d="M361.18,308.92h-1.94v-2a.4.4,0,1,0-.79,0v2h-1.94a.4.4,0,0,0,0,.79h1.94v1.86a.4.4,0,0,0,.79,0v-1.86h1.94a.4.4,0,1,0,0-.79" transform="translate(-228.47 -252.36)"/><path class="d" d="M361.18,275.8h-4.67a.39.39,0,0,1-.39-.4.38.38,0,0,1,.39-.39h4.67a.39.39,0,0,1,.4.39.4.4,0,0,1-.4.4" transform="translate(-228.47 -252.36)"/><path class="d" d="M387,309.63h-4.67a.39.39,0,0,1-.39-.4.38.38,0,0,1,.39-.39H387a.39.39,0,0,1,.4.39.4.4,0,0,1-.4.4" transform="translate(-228.47 -252.36)"/><polygon class="d" points="66.77 27.34 50.1 27.34 50.1 33.71 65.41 33.71 65.41 43.94 50.1 43.94 50.1 51.85 67.34 51.85 67.34 62.09 38.65 62.09 38.65 17.04 66.77 17.04 66.77 27.34"/><path class="c" d="M278.42,274a1.2,1.2,0,0,0-1.16,1h-4.14L270,271.11h-2.92v.46h2.69l3.09,3.89h4.37a1.19,1.19,0,0,0,1.16,1,1.21,1.21,0,0,0,0-2.42" transform="translate(-228.47 -252.36)"/><path class="c" d="M291.82,294.21l-2.28-3.88h-4a1.19,1.19,0,0,0-1.16-.95,1.21,1.21,0,1,0,0,2.41,1.19,1.19,0,0,0,1.16-1h3.71l2.29,3.89h2.35v-.52Z" transform="translate(-228.47 -252.36)"/><path class="c" d="M279.63,308.87a1.21,1.21,0,1,0-1.47,1.16v4.41h.52V310a1.21,1.21,0,0,0,.95-1.16" transform="translate(-228.47 -252.36)"/><path class="c" d="M295.81,308.59h-4a1.21,1.21,0,1,0,0,.52h4Z" transform="translate(-228.47 -252.36)"/><path class="c" d="M289,272.86V269.4h-.52v3.46a1.19,1.19,0,0,0-.95,1.15,1.21,1.21,0,1,0,1.47-1.15" transform="translate(-228.47 -252.36)"/><path class="c" d="M278.85,291.29a1.19,1.19,0,0,0-1.15.95h-4.95v13h-2.37v-17.1h2.13a1.19,1.19,0,0,0,1.16.95,1.21,1.21,0,0,0,0-2.42,1.19,1.19,0,0,0-1.16.95h-2.13V283a1.19,1.19,0,0,0,.95-1.16,1.21,1.21,0,1,0-2.42,0,1.19,1.19,0,0,0,.95,1.16v24.55L267.12,310v.69l3.26-2.85v-2h2.89v-13h4.43a1.19,1.19,0,0,0,1.15.95,1.21,1.21,0,1,0,0-2.41" transform="translate(-228.47 -252.36)"/><path class="d" d="M324.33,268.5c-11.44,0-23,7.7-23.1,23h11.91c0-7.43,4.45-12.48,11.19-12.48,4.83,0,8.24,2.06,9.85,6.63H345.5c-1.74-12-11.84-17.12-21.17-17.12" transform="translate(-228.47 -252.36)"/><path class="c" d="M324.33,314.44c-11.44,0-23-7.7-23.1-23h11.91c0,7.43,4.45,12.49,11.19,12.49,4.83,0,8.24-2.06,9.85-6.63H345.5c-1.74,12-11.84,17.11-21.17,17.11" transform="translate(-228.47 -252.36)"/><path class="c" d="M350.36,313.91h-4.6V291.79h4v-.51h-4V269.91h4.09v-.51h-4.09v-4.34h-.52v4.34H323.63v-4.34h-.52v4.34H301.49v-4.34H301v4.34h-4.08v.51H301v21.37h-4.16v.51H301v22.12H297.4v.52H301V318h.52v-3.58h21.62V318h.52v-3.58h21.61V318h.52v-3.58h4.6Zm-5.12-44v21.37H325.29a2,2,0,0,0-1.66-1.67v-19.7Zm-22.13,21.37H322a1.45,1.45,0,0,1,1.15-1.15Zm0,.51v1.15a1.45,1.45,0,0,1-1.15-1.15Zm.52,0h1.14a1.44,1.44,0,0,1-1.14,1.15Zm0-.51v-1.15a1.44,1.44,0,0,1,1.14,1.15Zm-22.14-21.37h21.62v19.7a2,2,0,0,0-1.67,1.67H301.49Zm0,44V291.79h19.95a2,2,0,0,0,1.67,1.67v20.45Zm22.14,0V293.46a2,2,0,0,0,1.66-1.67h19.95v22.12Z" transform="translate(-228.47 -252.36)"/><path class="c" d="M602,301a3.39,3.39,0,0,1-3.4,3.19h-9.21v-1.44H586.9a.78.78,0,1,1,0-1.55h2.53v-1.67H586.9a.78.78,0,0,1-.78-.78.77.77,0,0,1,.78-.77h2.53v-1.44h9.14a3.46,3.46,0,0,1,3.46,3.19h11.39A9.66,9.66,0,0,0,608,291a10.72,10.72,0,0,0,3.5-7H600.08a3.33,3.33,0,0,1-3.37,3.07h-7.28v-1.31H586.9a.78.78,0,0,1,0-1.56h2.53v-1.67H586.9a.77.77,0,0,1-.78-.77.78.78,0,0,1,.78-.78h2.53V279.7h7.21a3.37,3.37,0,0,1,3.43,3.07h11.49a13.82,13.82,0,0,0-14-13.36H578.3v45h21.11c8.89,0,13.63-5.94,14-13.42Z" transform="translate(-228.47 -252.36)"/><polygon class="d" points="181.66 39.93 181.66 62.1 169.74 62.1 169.74 16.8 173.93 16.8 196.74 39.09 196.74 16.99 208.53 16.99 208.53 62.16 204.41 62.16 181.66 39.93"/><path class="c" d="M407.08,312.81h-6a1.3,1.3,0,0,1-1.3-1.3v-6a1.3,1.3,0,0,1,1.3-1.3h6a1.3,1.3,0,0,1,1.29,1.3v6a1.3,1.3,0,0,1-1.29,1.3" transform="translate(-228.47 -252.36)"/><path class="d" d="M407.32,308.52a3.23,3.23,0,1,1-3.23-3.23,3.23,3.23,0,0,1,3.23,3.23" transform="translate(-228.47 -252.36)"/><path class="c" d="M405.73,308.52a.5.5,0,1,1-1,0,.5.5,0,0,1,1,0" transform="translate(-228.47 -252.36)"/><path class="c" d="M403.45,308.52a.51.51,0,1,1-1,0,.51.51,0,0,1,1,0" transform="translate(-228.47 -252.36)"/><polygon class="c" points="203.78 53.38 176.12 27.97 176.12 52.26 175.12 52.26 175.12 25.69 202.76 51.09 202.55 22.3 203.55 22.29 203.78 53.38"/><path class="d" d="M560.86,308.85H543.33l-2.61,5.59H529.6v-1.65l20-43.4h4.89l20.08,43.4v1.65H563.47ZM552,287.44l-5,11.69h10.17Z" transform="translate(-228.47 -252.36)"/><path class="c" d="M569.69,310.12c-1.89-1.56-1.14-4.28-1.22-6.44a21.07,21.07,0,0,0-1.62-7.92c-1.9-4.31-5.41-8.26-8.66-11.62a2.64,2.64,0,0,0-1.8-.87l-.89-2.75a3.58,3.58,0,0,0,.34-1.35,3.75,3.75,0,0,0-.18-1.38c1.28-2.2,1.28-4.6,1.29-6.94a41.59,41.59,0,0,0-1.14-7h-1.29s-.1,2.37-.17,3.39a32.33,32.33,0,0,1-1.45,8.07,3.08,3.08,0,0,0-.53-.08h-.22a3.49,3.49,0,0,0-.86.11,32.13,32.13,0,0,1-1.46-8.09c-.06-1-.17-3.39-.17-3.39h-1.29a41.59,41.59,0,0,0-1.14,7c0,2.39,0,4.85,1.38,7.1a2.91,2.91,0,0,0-.14.79,3.49,3.49,0,0,0,.25,1.55l-1,3a2.71,2.71,0,0,0-1.75.87c-3.25,3.36-6.76,7.33-8.66,11.62a21.07,21.07,0,0,0-1.62,7.92c-.07,2.16.67,4.88-1.22,6.45-2.91,2.4,1.26,6.53,4.14,4.14,3.69-3.05,2.69-7.05,3-11.23.41-6,4.53-10.62,8.52-14.75a2.73,2.73,0,0,0,.44-3.39l.74-2.34a4.21,4.21,0,0,0,.62.09h.22a3.71,3.71,0,0,0,.67-.07l.75,2.37a2.72,2.72,0,0,0,.47,3.33c4,4.12,8.12,8.82,8.52,14.75.29,4.18-.7,8.2,3,11.24,2.88,2.39,7.06-1.74,4.14-4.15m-17.64-29.37a1.79,1.79,0,0,1-1.24-.6,1.77,1.77,0,0,1-.45-1.3,1.8,1.8,0,0,1,1.79-1.69h.11a1.8,1.8,0,0,1-.1,3.59h-.11" transform="translate(-228.47 -252.36)"/><rect class="d" x="269.49" y="17.04" width="11.58" height="45.04"/><polygon class="c" points="275.29 6.87 269.49 17.04 281.08 17.04 275.29 6.87"/><polygon class="d" points="275.29 6.87 273.2 10.54 277.37 10.54 275.29 6.87"/><rect class="c" x="281.08" y="51.73" width="16.34" height="10.36"/><path class="d" d="M475.8,290.82a1.85,1.85,0,0,0-1.26-.65,3,3,0,0,0-2.09.68,5.19,5.19,0,0,0-1.27,1.41,5.53,5.53,0,0,1-1.11-.94,7.39,7.39,0,0,0,.84-1.63,2.13,2.13,0,0,0,.08-1.57,1.5,1.5,0,0,0-.93-.86,1.68,1.68,0,0,0-1.37.11,2.18,2.18,0,0,0-1,2,3.67,3.67,0,0,0,.61,1.84l.08.12a6.12,6.12,0,0,1-1.78,1.35,2.91,2.91,0,0,0-1.34-1.56,2,2,0,0,0-1.88,0,1.67,1.67,0,0,0-.92,1.3,2,2,0,0,0,1.25,1.92,3.21,3.21,0,0,0,1.95.07l.06,0,1.49,9.49.9-.11L467,293.94a7.22,7.22,0,0,0,2.23-1.57,7.1,7.1,0,0,0,1.46,1.16,10,10,0,0,0-.13,1.12l-.27,9.39.91,0,.72-9.39a5,5,0,0,1,.05-.58l.46.13a3.37,3.37,0,0,0,2.82-.35,2.33,2.33,0,0,0,1-1.58,1.89,1.89,0,0,0-.39-1.49m-11.59,2.28a.62.62,0,0,1-.4-.56.36.36,0,0,1,.2-.26.72.72,0,0,1,.32-.08.64.64,0,0,1,.28.06,1.71,1.71,0,0,1,.69.84,1.81,1.81,0,0,1-1.09,0m5.41-3.86a5.28,5.28,0,0,1-.38.84,2.12,2.12,0,0,1-.21-.78.91.91,0,0,1,.34-.77.24.24,0,0,1,.12,0,.25.25,0,0,1,.12,0,.19.19,0,0,1,.11.09,1,1,0,0,1-.1.63m5.22,2.89a1,1,0,0,1-.4.67,2.09,2.09,0,0,1-1.69.14l-.34-.09a4.07,4.07,0,0,1,.91-1,1.64,1.64,0,0,1,1.08-.39.46.46,0,0,1,.34.16.66.66,0,0,1,.1.47" transform="translate(-228.47 -252.36)"/><path class="d" d="M474,316.83h-9.3a.69.69,0,0,1,0-1.37H474a.69.69,0,0,1,0,1.37" transform="translate(-228.47 -252.36)"/><path class="d" d="M474,318.8h-9.3a.68.68,0,0,1,0-1.36H474a.68.68,0,0,1,0,1.36" transform="translate(-228.47 -252.36)"/><path class="d" d="M474,320.86h-9.3a.68.68,0,0,1,0-1.36H474a.68.68,0,1,1,0,1.36" transform="translate(-228.47 -252.36)"/><path class="c" d="M446.06,291.43c0-30.64,46.52-30.64,46.52,0s-46.52,30.71-46.52,0m34.66,0c0-15.95-22.74-15.95-22.74,0s22.74,16.09,22.74,0" transform="translate(-228.47 -252.36)"/><path class="d" d="M469.36,325a3.33,3.33,0,0,0,3.37-3.29H466a3.33,3.33,0,0,0,3.37,3.29" transform="translate(-228.47 -252.36)"/><path class="d" d="M469.75,263.62a1,1,0,0,1-1-1v-9.22a1,1,0,0,1,2.08,0v9.22a1,1,0,0,1-1,1" transform="translate(-228.47 -252.36)"/><path class="d" d="M481.52,265.35a1,1,0,0,1-.64-.21,1,1,0,0,1-.19-1.43l5.76-7.31a1.05,1.05,0,0,1,1.46-.18,1,1,0,0,1,.19,1.43L482.35,265a1.06,1.06,0,0,1-.83.39" transform="translate(-228.47 -252.36)"/><path class="d" d="M458,265.35a1.06,1.06,0,0,1-.83-.39l-5.75-7.31a1,1,0,0,1,.19-1.43,1.05,1.05,0,0,1,1.46.18l5.76,7.31a1,1,0,0,1-.19,1.43,1,1,0,0,1-.64.21" transform="translate(-228.47 -252.36)"/></svg>
