<?xml version="1.0" encoding="UTF-8" standalone="no"?>
<!-- Created with Inkscape (http://www.inkscape.org/) -->

<svg
   width="20cm"
   height="20cm"
   viewBox="0 0 200 200"
   version="1.1"
   id="svg3998"
   inkscape:version="1.2.2 (b0a8486541, 2022-12-01)"
   sodipodi:docname="pythonleidensquare.svg"
   inkscape:export-filename="../plug/pythonleiden/site/images/pythonleiden-logo-only.png"
   inkscape:export-xdpi="12.19"
   inkscape:export-ydpi="12.19"
   xmlns:inkscape="http://www.inkscape.org/namespaces/inkscape"
   xmlns:sodipodi="http://sodipodi.sourceforge.net/DTD/sodipodi-0.dtd"
   xmlns:xlink="http://www.w3.org/1999/xlink"
   xmlns="http://www.w3.org/2000/svg"
   xmlns:svg="http://www.w3.org/2000/svg">
  <sodipodi:namedview
     id="namedview4000"
     pagecolor="#ffffff"
     bordercolor="#000000"
     borderopacity="0.25"
     inkscape:showpageshadow="2"
     inkscape:pageopacity="0.0"
     inkscape:pagecheckerboard="0"
     inkscape:deskcolor="#d1d1d1"
     inkscape:document-units="mm"
     showgrid="false"
     inkscape:zoom="0.70199214"
     inkscape:cx="398.1526"
     inkscape:cy="561.25984"
     inkscape:window-width="1920"
     inkscape:window-height="1011"
     inkscape:window-x="0"
     inkscape:window-y="0"
     inkscape:window-maximized="1"
     inkscape:current-layer="layer1" />
  <defs
     id="defs3995">
    <linearGradient
       inkscape:collect="always"
       xlink:href="#linearGradient4689"
       id="linearGradient1478"
       gradientUnits="userSpaceOnUse"
       gradientTransform="matrix(1.056157,0,0,1.0278239,-26.332189,-14.996125)"
       x1="26.648937"
       y1="20.603781"
       x2="135.66525"
       y2="114.39767" />
    <linearGradient
       id="linearGradient4689">
      <stop
         style="stop-color:#5a9fd4;stop-opacity:1;"
         offset="0"
         id="stop4691" />
      <stop
         style="stop-color:#306998;stop-opacity:1;"
         offset="1"
         id="stop4693" />
    </linearGradient>
    <linearGradient
       inkscape:collect="always"
       xlink:href="#linearGradient4671"
       id="linearGradient1475"
       gradientUnits="userSpaceOnUse"
       gradientTransform="matrix(1.056157,0,0,1.0278239,-26.332189,-14.996125)"
       x1="150.96111"
       y1="192.35176"
       x2="112.03144"
       y2="137.27299" />
    <linearGradient
       id="linearGradient4671">
      <stop
         style="stop-color:#ffd43b;stop-opacity:1;"
         offset="0"
         id="stop4673" />
      <stop
         style="stop-color:#ffe873;stop-opacity:1"
         offset="1"
         id="stop4675" />
    </linearGradient>
  </defs>
  <g
     inkscape:label="Layer 1"
     inkscape:groupmode="layer"
     id="layer1">
    <path
       style="fill:#e10f02;fill-opacity:1;stroke-width:0.794642"
       d="m 27.448873,197.62048 c -1.121475,-0.34514 -2.440987,-1.85422 -2.771195,-3.16961 l -0.278563,-1.10967 -1.10982,0.36784 c -1.674131,0.5545 -4.27115,0.3153 -5.92373,-0.54613 -1.700228,-0.88614 -3.360101,-2.83767 -4.038404,-4.74817 -0.438445,-1.23477 -0.504567,-1.84992 -0.411468,-3.8306 l 0.111058,-2.35952 -0.873224,-0.1505 c -2.099233,-0.36154 -3.8331451,-2.71921 -3.6025237,-4.89817 0.2759979,-2.6078 2.0823737,-4.55156 4.2299527,-4.55156 0.573402,0 1.042525,-0.0475 1.042525,-0.10594 0,-0.058 -0.363966,-1.01621 -0.809044,-2.12856 -1.778373,-4.44557 -2.431641,-7.88349 -2.443334,-12.85855 -0.02199,-8.77324 3.138607,-16.76144 9.18637,-23.22873 10.364512,-11.08341 25.152835,-12.97539 37.794826,-4.83545 l 2.361377,1.52043 2.396638,-2.78059 c 2.388646,-2.77133 2.3955,-2.78302 2.043374,-3.50832 -0.504164,-1.03857 -0.823009,-3.16471 -0.604886,-4.03353 0.473081,-1.88432 2.188337,-2.56825 4.717255,-1.88095 0.785295,0.21356 1.472027,0.34136 1.526199,0.28419 0.05388,-0.0572 -0.109217,-0.59457 -0.363232,-1.19446 -0.285161,-0.67392 -0.461756,-1.66903 -0.461756,-2.60381 0,-1.39339 0.06487,-1.57474 0.818794,-2.29243 0.862338,-0.82072 1.080058,-0.83893 4.904225,-0.41072 0.564054,0.063 2.797437,-2.47071 19.557993,-22.189357 10.40677,-12.243312 18.92133,-22.360583 18.92133,-22.482704 0,-0.122339 -0.21552,-0.728242 -0.47902,-1.346847 -0.61482,-1.443073 -0.64557,-3.743657 -0.0605,-4.513011 0.23018,-0.302681 0.65653,-0.680022 0.94752,-0.838509 0.75179,-0.409461 2.73993,-0.356492 3.96997,0.105515 1.0124,0.380453 1.06584,0.373726 1.57825,-0.193371 0.29175,-0.322872 11.56793,-13.590798 25.05819,-29.483848 14.82411,-17.464426 24.95654,-29.198265 25.61175,-29.6591805 0.92831,-0.653244 1.31342,-0.7620829 2.68601,-0.7588038 1.701,0 2.89772,0.5765229 4.06062,1.9420752 0.80959,0.9510062 1.35946,2.9932183 1.17147,4.3523808 -0.21699,1.5707449 -0.79248,2.5101483 -3.43543,5.6081693 -1.23909,1.452615 -2.25325,2.731316 -2.25325,2.841626 0,0.110141 1.08926,1.235778 2.42036,2.5009 2.35763,2.240761 2.40928,2.3137 1.99825,2.817831 -0.23202,0.284604 -1.59789,1.905375 -3.03462,3.601691 -1.43699,1.696314 -2.58141,3.166503 -2.54314,3.267227 0.0836,0.220279 7.18672,7.07365 7.41654,7.155668 0.0887,0.02942 1.52084,-1.561414 3.18281,-3.540147 l 3.02172,-3.597527 0.61137,0.597248 c 0.33611,0.328325 3.52695,3.40932 7.09029,6.846387 3.56353,3.437065 6.47896,6.36134 6.47896,6.498261 0,0.305203 -7.73162,9.39256 -7.99127,9.39256 -0.1019,0 -1.90908,-1.654487 -4.01575,-3.676604 -2.10645,-2.022118 -3.89077,-3.667861 -3.96491,-3.657223 -0.074,0.0083 -1.89523,2.113132 -4.04724,4.672044 l -3.91261,4.652625 3.85209,3.731507 c 2.11855,2.052342 3.85199,3.843498 3.85199,3.980335 0,0.330426 -7.56022,9.188251 -7.87162,9.222809 -0.13305,0.01673 -1.9682,-1.625019 -4.07781,-3.644192 -2.10957,-2.019093 -3.90795,-3.61342 -3.99632,-3.542837 -0.52829,0.421693 -7.78975,9.155628 -7.73535,9.303985 0.0367,0.09921 1.78295,1.832438 3.88101,3.851444 2.09806,2.018923 3.81457,3.712127 3.81457,3.762615 0,0.213982 -7.83519,9.270187 -8.02033,9.270187 -0.19573,0 -13.04712,-12.284423 -13.89384,-13.281168 -0.39789,-0.468356 -0.29689,-0.626254 2.51492,-3.923582 1.61119,-1.889527 2.89508,-3.545485 2.853,-3.680011 -0.0422,-0.134513 -1.7161,-1.842316 -3.72011,-3.795238 l -3.64355,-3.55078 -2.75888,3.237085 c -1.51741,1.780519 -2.89028,3.416385 -3.0509,3.635323 -0.25071,0.342196 -0.62941,0.06685 -2.68847,-1.957461 -1.31804,-1.295558 -2.51272,-2.355698 -2.65482,-2.355698 -0.14185,0 -0.45809,0.279979 -0.70238,0.6218 -0.24411,0.342196 -1.28528,1.599414 -2.31351,2.794204 l -1.86949,2.172364 0.47678,1.336672 c 0.26207,0.735178 0.47678,1.907015 0.47678,2.604107 0,1.062954 -0.11655,1.3917 -0.72338,2.03805 -0.93213,0.992835 -2.13633,1.204838 -3.95084,0.69541 -0.77247,-0.216933 -1.44996,-0.394327 -1.5056,-0.394327 -0.0553,0 -8.40482,9.781675 -18.55385,21.736933 -10.149099,11.955298 -18.717608,22.043518 -19.041182,22.418168 -0.549688,0.63648 -0.565082,0.72993 -0.234581,1.41903 1.053962,2.19794 0.94972,4.76548 -0.233847,5.75709 -0.775067,0.64954 -2.905307,0.71752 -4.437336,0.14167 -1.155598,-0.4343 -1.132508,-0.52532 -0.392262,1.54712 0.202692,0.56762 0.373386,1.58172 0.379213,2.2535 0.022,2.51258 -2.181702,3.6814 -5.053657,2.68074 -0.661699,-0.23036 -1.252583,-0.41912 -1.313318,-0.41912 -0.06049,0 -1.213219,1.29917 -2.561136,2.88694 l -2.450884,2.88707 0.688419,0.78953 c 0.887518,1.0179 2.655408,3.7501 3.602928,5.56798 2.959372,5.67821 4.337932,12.59253 3.712777,18.62248 -1.512198,14.58753 -11.385705,26.23283 -24.952452,29.43036 -4.476409,1.05509 -10.788406,0.64744 -15.302824,-0.98816 -0.954996,-0.34599 -1.771775,-0.62912 -1.814988,-0.62912 -0.04289,0 -0.0788,0.56227 -0.0788,1.24944 0,1.89759 -0.826675,3.35021 -2.406938,4.22959 -1.321967,0.7356 -2.227262,0.84291 -3.586068,0.42488 z m 22.421372,-15.70283 c 9.600661,-2.8898 16.30492,-13.25796 15.106839,-23.36283 -0.426055,-3.59337 -2.109899,-7.9581 -4.106248,-10.64389 l -0.438481,-0.58977 -3.080439,3.62872 c -1.69429,1.99584 -3.080438,3.77792 -3.080438,3.96011 0,0.37835 1.003159,1.42857 2.024206,2.11948 0.795482,0.53815 3.217153,0.61214 4.367219,0.13327 0.38482,-0.16017 0.747504,-0.24005 0.805966,-0.17783 0.05828,0.0622 -0.29066,0.58127 -0.775582,1.15313 -2.405763,2.8367 -5.778693,2.76545 -8.451621,-0.17866 -0.812161,-0.89455 -1.019911,-1.00272 -1.529571,-0.7963 -0.324381,0.13117 -1.045788,0.22994 -1.603281,0.21902 -3.046278,-0.0589 -5.259797,-2.74536 -4.944359,-6.00082 l 0.13305,-1.37198 -1.128623,-1.03656 c -2.729263,-2.50666 -2.941815,-5.88406 -0.557127,-8.85563 0.397906,-0.49581 0.772538,-0.84414 0.832686,-0.77407 0.05974,0.0702 0.02565,0.76592 -0.07844,1.54641 -0.280761,2.1233 0.117661,3.49579 1.401909,4.82523 0.589125,0.60986 1.215748,1.1089 1.392635,1.1089 0.361767,0 6.29466,-6.87093 6.29466,-7.28993 0,-0.44607 -4.126957,-2.5046 -6.124992,-3.05506 -2.564546,-0.70659 -5.438773,-0.89287 -7.72941,-0.50089 -9.846382,1.68479 -17.498086,11.17834 -17.509304,21.72386 -0.0073,3.73474 1.264166,8.12857 3.338881,11.56849 1.422689,2.35894 5.650847,7.20363 7.618678,8.7297 2.836915,2.20002 6.824079,3.96292 10.23355,4.52473 1.5744,0.25939 5.844194,-0.0824 7.587892,-0.60704 z"
       id="path3917-14"
       inkscape:connector-curvature="0" />
    <path
       style="fill:#e10f02;fill-opacity:1;stroke-width:0.794642"
       d="m 172.68529,198.54265 c 1.12141,-0.34472 2.44092,-1.85422 2.77109,-3.16962 l 0.27893,-1.10966 1.10978,0.36784 c 1.6741,0.55454 4.27126,0.31487 5.92381,-0.54613 1.70026,-0.88614 3.36013,-2.83767 4.03829,-4.74818 0.43863,-1.23476 0.50457,-1.84992 0.4115,-3.83055 l -0.11105,-2.35956 0.87315,-0.1505 c 2.09916,-0.36154 3.83311,-2.71921 3.60256,-4.89818 -0.276,-2.60781 -2.08226,-4.55156 -4.22991,-4.55156 -0.57351,0 -1.04264,-0.0475 -1.04264,-0.10593 0,-0.058 0.36397,-1.01621 0.80919,-2.12856 1.77827,-4.44558 2.4315,-7.88349 2.44308,-12.85855 0.022,-8.77324 -3.13846,-16.76145 -9.1863,-23.22869 -10.36441,-11.08341 -25.15269,-12.97538 -37.79474,-4.83545 l -2.36137,1.52042 -2.39664,-2.78062 c -2.38861,-2.7713 -2.39547,-2.78302 -2.04338,-3.50832 0.5042,-1.03854 0.82305,-3.1647 0.60489,-4.0335 -0.47304,-1.88435 -2.18834,-2.56824 -4.71726,-1.88099 -0.78525,0.21357 -1.47202,0.34136 -1.52619,0.28418 -0.0539,-0.0572 0.10921,-0.59455 0.36323,-1.19453 0.28516,-0.67397 0.46175,-1.66895 0.46175,-2.60377 0,-1.39334 -0.0649,-1.5747 -0.81883,-2.29239 -0.86234,-0.82077 -1.07998,-0.83901 -4.90418,-0.41071 -0.56406,0.063 -2.79744,-2.47077 -19.558,-22.189365 C 95.279279,79.056466 86.764724,68.939193 86.764724,68.81707 c 0,-0.122338 0.215519,-0.728242 0.479093,-1.346844 0.614746,-1.443116 0.64557,-3.743657 0.06049,-4.513055 -0.230184,-0.302681 -0.656495,-0.67998 -0.947485,-0.838467 -0.751829,-0.409461 -2.739929,-0.356492 -3.969973,0.105516 -1.01232,0.380452 -1.065834,0.374145 -1.578282,-0.193372 C 80.516797,61.707564 69.240722,48.440057 55.750358,32.546963 40.926224,15.082495 30.793765,3.3487402 30.138699,2.8877828 29.210314,2.234623 28.82509,2.1257421 27.452576,2.1290209 c -1.700887,0 -2.897759,0.5764387 -4.060507,1.9421174 -0.809702,0.9508799 -1.359462,2.9931762 -1.171615,4.3523809 0.216985,1.5707028 0.792551,2.5101058 3.435423,5.6081278 1.239243,1.452615 2.25314,2.731315 2.25314,2.841667 0,0.110563 -1.089073,1.235652 -2.420206,2.500815 -2.357563,2.240721 -2.409319,2.313742 -1.998144,2.817874 0.232014,0.284603 1.597636,1.905377 3.034623,3.60169 1.436948,1.696316 2.58133,3.166504 2.543138,3.267144 -0.08357,0.220697 -7.186759,7.073733 -7.416648,7.155752 -0.0887,0.02942 -1.520884,-1.561412 -3.182773,-3.540145 l -3.021683,-3.597529 -0.611447,0.597206 c -0.336109,0.328325 -3.52691,3.409363 -7.0903993,6.846428 -3.5633793,3.437068 -6.4789516,6.361257 -6.4789516,6.498179 0,0.305201 7.7319019,9.392643 7.9914426,9.392643 0.1018961,0 1.9090773,-1.654487 4.0156783,-3.676603 2.106602,-2.022117 3.890802,-3.667859 3.964805,-3.657224 0.07404,0.0083 1.895369,2.113047 4.047384,4.672046 l 3.912572,4.652622 -3.852058,3.731508 c -2.118623,2.052342 -3.852133,3.8435 -3.852133,3.980335 0,0.330427 7.560256,9.188251 7.871697,9.222808 0.133049,0.01254 1.9682,-1.625058 4.077842,-3.644234 2.109607,-2.019048 3.907918,-3.613379 3.996363,-3.542794 0.528318,0.421692 7.78974,9.15563 7.735348,9.3039 -0.03666,0.09963 -1.782882,1.832522 -3.881016,3.851529 -2.098062,2.018923 -3.814746,3.712127 -3.814746,3.762617 0,0.213982 7.835373,9.270185 8.020508,9.270185 0.195727,0 13.047116,-12.284466 13.893914,-13.281166 0.397795,-0.468358 0.296522,-0.626257 -2.514992,-3.923626 -1.611233,-1.889528 -2.895082,-3.545485 -2.853005,-3.679969 0.04216,-0.134514 1.716063,-1.842316 3.720073,-3.795237 l 3.643612,-3.550866 2.75888,3.237171 c 1.517402,1.780392 2.890282,3.416383 3.050897,3.635279 0.250707,0.342199 0.629369,0.06685 2.688431,-1.957503 1.31812,-1.295598 2.512756,-2.355612 2.654859,-2.355612 0.142224,0 0.458165,0.27998 0.702348,0.621798 0.244109,0.342196 1.285315,1.599415 2.313545,2.794206 l 1.869492,2.172365 -0.476785,1.336672 c -0.262435,0.735178 -0.476782,1.907015 -0.476782,2.604105 0,1.062956 0.116556,1.391701 0.723348,2.03805 0.932126,0.992835 2.136365,1.204836 3.950877,0.695409 0.772427,-0.216932 1.450033,-0.394327 1.505563,-0.394327 0.05534,0 8.404817,9.78155 18.553881,21.736933 10.149101,11.955262 18.717611,22.043482 19.041181,22.418142 0.54969,0.63647 0.56508,0.72983 0.23458,1.41903 -1.05396,2.19793 -0.94968,4.76538 0.23385,5.75708 0.77507,0.64955 2.90527,0.71752 4.43734,0.14166 1.1556,-0.43434 1.13254,-0.52544 0.39226,1.54708 -0.20269,0.56761 -0.37339,1.58168 -0.37921,2.25347 -0.022,2.51254 2.1817,3.68143 5.05365,2.68082 0.6617,-0.23036 1.25266,-0.41914 1.31332,-0.41914 0.0605,0 1.21318,1.29914 2.56114,2.88696 l 2.45088,2.88694 -0.68845,0.78966 c -0.88748,1.01776 -2.65541,3.75004 -3.60289,5.56794 -2.95941,5.67829 -4.33797,12.59252 -3.71282,18.62251 1.51224,14.58741 11.38571,26.23279 24.95247,29.43032 4.47641,1.05509 10.78841,0.64744 15.30286,-0.98817 0.95504,-0.34598 1.7717,-0.62907 1.8151,-0.62907 0.0429,0 0.0784,0.56223 0.0784,1.2494 0,1.8976 0.82668,3.35021 2.40701,4.22959 1.32197,0.73559 2.22734,0.84292 3.58614,0.42488 z m -22.42141,-15.70287 c -9.60067,-2.88976 -16.30493,-13.25796 -15.10682,-23.3627 0.42602,-3.59346 2.10987,-7.9582 4.10633,-10.64391 l 0.4384,-0.58984 3.08044,3.62872 c 1.69424,1.99588 3.08046,3.77792 3.08046,3.96012 0,0.37835 -1.00312,1.42857 -2.02426,2.1194 -0.79548,0.53822 -3.21712,0.6122 -4.36718,0.13325 -0.38482,-0.16017 -0.74751,-0.24004 -0.80597,-0.17782 -0.0583,0.0622 0.29066,0.58119 0.77558,1.1532 2.40573,2.83663 5.77868,2.76538 8.45157,-0.17865 0.81219,-0.89451 1.01991,-1.00268 1.52957,-0.79631 0.32438,0.13117 1.04579,0.22994 1.60328,0.21902 3.04631,-0.0589 5.2598,-2.74535 4.9444,-6.00081 l -0.13305,-1.37199 1.12873,-1.03655 c 2.72915,-2.50666 2.94156,-5.88407 0.55705,-8.85568 -0.39794,-0.49573 -0.77264,-0.84406 -0.83272,-0.77402 -0.0597,0.0702 -0.0257,0.76595 0.0784,1.5464 0.28077,2.1233 -0.11766,3.4958 -1.40187,4.82523 -0.58916,0.60991 -1.21578,1.10891 -1.3926,1.10891 -0.36176,0 -6.29469,-6.87093 -6.29469,-7.28989 0,-0.44612 4.12696,-2.50461 6.12495,-3.05507 2.56458,-0.70658 5.43881,-0.8929 7.7293,-0.50093 9.84657,1.6848 17.49805,11.17837 17.50945,21.72386 0.007,3.73475 -1.26431,8.12858 -3.33899,11.5685 -1.42254,2.35885 -5.65066,7.20363 -7.61857,8.7297 -2.83691,2.20002 -6.82407,3.96292 -10.23362,4.52473 -1.57436,0.25938 -5.84405,-0.0824 -7.58782,-0.60709 z"
       id="path3917-1-2"
       inkscape:connector-curvature="0" />
    <g
       id="g868"
       transform="matrix(0.68406236,0,0,0.75100378,32.321466,3.7098132)">
      <path
         style="fill:url(#linearGradient1478);fill-opacity:1;stroke-width:1.84325"
         d="M 104.92197,6.1826001 C 96.316262,6.2211456 88.098024,6.9285657 80.866815,8.1618923 59.564559,11.78932 55.696898,19.381835 55.696895,33.383729 v 18.492243 h 50.339825 v 6.164081 H 55.696895 36.804796 c -14.630154,0 -27.4407341,8.475835 -31.4477195,24.599775 -4.62200723,18.481782 -4.82701863,30.014702 0,49.312652 3.5783335,14.36463 12.1238805,24.59977 26.7540295,24.59977 h 17.30798 v -22.16807 c 0,-16.01511 14.376103,-30.14179 31.447729,-30.14179 h 50.281135 c 13.99649,0 25.16991,-11.107852 25.16991,-24.656326 V 33.383729 c 0,-13.149447 -11.5089,-23.027246 -25.16991,-25.2218367 C 122.50032,6.7743972 113.52766,6.1440586 104.92197,6.1826001 Z M 77.698565,21.055566 c 5.199753,0 9.446058,4.15972 9.446058,9.274397 -1.8e-5,5.09655 -4.246305,9.217846 -9.446058,9.217846 -5.2184,-10e-7 -9.44605,-4.121297 -9.44605,-9.217846 -2e-6,-5.114676 4.22765,-9.274397 9.44605,-9.274397 z"
         id="path1948" />
      <path
         style="fill:url(#linearGradient1475);fill-opacity:1;stroke-width:1.84325"
         d="m 162.59568,58.040053 v 21.546011 c 0,16.704321 -14.69295,30.763856 -31.44773,30.763856 H 80.866815 c -13.772859,0 -25.169917,11.36178 -25.16992,24.65632 v 46.20233 c 0,13.14944 11.862996,20.88381 25.16992,24.65633 15.934756,4.51615 31.215345,5.33234 50.281135,0 12.67324,-3.53674 25.16991,-10.65445 25.16991,-24.65633 v -18.49223 h -50.28114 v -6.16409 h 50.28114 25.16991 c 14.63015,0 20.08195,-9.83613 25.16989,-24.59977 5.25568,-15.19896 5.03205,-29.81521 0,-49.312652 -3.6156,-14.038165 -10.52113,-24.599775 -25.16989,-24.599775 z M 134.31619,175.04449 c 5.21839,0 9.44606,4.12131 9.44606,9.21785 -3e-5,5.11466 -4.22767,9.27439 -9.44606,9.27439 -5.19977,0 -9.44605,-4.15973 -9.44605,-9.27439 0,-5.09654 4.24627,-9.21785 9.44605,-9.21785 z"
         id="path1950" />
    </g>
  </g>
</svg>
